<svg xmlns="http://www.w3.org/2000/svg" width="28.447" height="28.447" viewBox="0 0 28.447 28.447"><path d="M0,0H28.447V28.447H0Z" fill="none" opacity="0.87"/><path d="M13.853,2A11.853,11.853,0,1,0,25.706,13.853,11.842,11.842,0,0,0,13.853,2Zm5.1,16.95a1.18,1.18,0,0,1-1.671,0l-3.426-3.426L10.428,18.95a1.182,1.182,0,0,1-1.671-1.671l3.426-3.426L8.756,10.428a1.182,1.182,0,0,1,1.671-1.671l3.426,3.426,3.426-3.426a1.182,1.182,0,0,1,1.671,1.671l-3.426,3.426,3.426,3.426a1.2,1.2,0,0,1,0,1.671Z" transform="translate(0.371 0.371)"/></svg>