<svg id="Component_23_1" data-name="Component 23 – 1" xmlns="http://www.w3.org/2000/svg" width="16" height="16" viewBox="0 0 16 16">
  <path id="Path_229" data-name="Path 229" d="M12728.441,418.109a8,8,0,1,0,8,8A8,8,0,0,0,12728.441,418.109Zm0,14a6,6,0,1,1,6-6A6.007,6.007,0,0,1,12728.441,432.109Z" transform="translate(-12720.441 -418.109)" fill="#ee683a"/>
  <path id="Path_230" data-name="Path 230" d="M12730,426.015a2.235,2.235,0,0,0,.717-.56,1.183,1.183,0,0,0,.216-.376,1.275,1.275,0,0,0,.07-.422,1.662,1.662,0,0,0-.14-.692,1.4,1.4,0,0,0-.439-.523,2.505,2.505,0,0,0-1.265-.434v-.879h-.759V423l-.688,0v-.866h-.759v.863h-1.382v.69c0,.15-.012.239.144.271l.06.009c.024.005.329.015.4.024a.188.188,0,0,1,.18.211v3.743c0,.117-.057.232-.18.232-.068,0-.371.018-.4.023l-.06.01c-.155.031-.144.121-.144.27v.771h1.382v.842h.759v-.842h.688v.842h.759v-.849a3.626,3.626,0,0,0,.822-.132,1.919,1.919,0,0,0,.688-.382,1.622,1.622,0,0,0,.638-1.317A1.353,1.353,0,0,0,12730,426.015Zm-2.246-1.915h.615a1.272,1.272,0,0,1,.716.16.6.6,0,0,1,.229.535.586.586,0,0,1-.255.53,1.36,1.36,0,0,1-.743.167h-.562Zm1.721,3.573a.591.591,0,0,1-.157.234.794.794,0,0,1-.29.159,1.443,1.443,0,0,1-.449.06h-.8v-1.411h.794a1.7,1.7,0,0,1,.433.047.8.8,0,0,1,.293.134.521.521,0,0,1,.168.213.707.707,0,0,1,.055.282A.818.818,0,0,1,12729.477,427.673Z" transform="translate(-12720.441 -418.109)" fill="#ee683a"/>
</svg>
