<svg id="Component_25_1" data-name="Component 25 – 1" xmlns="http://www.w3.org/2000/svg" width="22.745" height="27.841" viewBox="0 0 22.745 27.841">
  <path id="Path_129" data-name="Path 129" d="M13439.215,4643.4a11.336,11.336,0,0,0-5.572-3.061l.148-2.817-5.559,2.929-1.485.786-.276.144.44.236,2.075,1.117,4.405,2.371.124-2.331a8.988,8.988,0,0,1,5.9,12.241l2.2.953a11.384,11.384,0,0,0-2.392-12.568Z" transform="translate(-13419.799 -4637.525)" fill="#fff"/>
  <path id="Path_130" data-name="Path 130" d="M13433.36,4660.154l-4.41-2.371-.124,2.331a8.987,8.987,0,0,1-5.895-12.241l-2.2-.953a11.366,11.366,0,0,0,7.962,15.624l-.147,2.822,5.557-2.929,1.491-.786.272-.144-.436-.236Z" transform="translate(-13419.799 -4637.525)" fill="#fff"/>
</svg>
