<svg id="Component_22_1" data-name="Component 22 – 1" xmlns="http://www.w3.org/2000/svg" width="21.297" height="25.346" viewBox="0 0 21.297 25.346">
  <rect id="Rectangle_1003" data-name="Rectangle 1003" width="9.623" height="0.92" transform="translate(3.707 16.608)" fill="#fff"/>
  <rect id="Rectangle_1004" data-name="Rectangle 1004" width="9.623" height="0.917" transform="translate(3.707 12.881)" fill="#fff"/>
  <rect id="Rectangle_1005" data-name="Rectangle 1005" width="9.623" height="0.92" transform="translate(3.707 9.151)" fill="#fff"/>
  <rect id="Rectangle_1006" data-name="Rectangle 1006" width="4.533" height="0.92" transform="translate(8.796 5.424)" fill="#fff"/>
  <path id="Path_593" data-name="Path 593" d="M5425.9,334.081V316.429a1.937,1.937,0,0,0-.029-.335,1.966,1.966,0,0,0-1.935-1.626h-7.958a2.15,2.15,0,0,0-1.521.631l-4.966,4.962a2.166,2.166,0,0,0-.631,1.526v12.494a1.966,1.966,0,0,0,1.965,1.96h13.111A1.965,1.965,0,0,0,5425.9,334.081Zm-10.617-18.25v4.409c0,.479-.186.664-.661.664h-4.409Zm-5.32,18.25v-12.2h5.248a1.065,1.065,0,0,0,.94-.578,1.01,1.01,0,0,0,.114-.472v-5.261h7.671a.856.856,0,0,1,.79.523.817.817,0,0,1,.068.335v17.652a.859.859,0,0,1-.858.858h-13.111A.863.863,0,0,1,5409.962,334.081Z" transform="translate(-5408.859 -314.468)" fill="#fff"/>
  <path id="Path_594" data-name="Path 594" d="M5428.195,318.241h-1.323l.068,1.1h1.255a.859.859,0,0,1,.859.859v17.651a.861.861,0,0,1-.859.859H5415.08a.863.863,0,0,1-.79-.524.886.886,0,0,1-.068-.335v-.767h-1.1v.767a1.845,1.845,0,0,0,.03.335,1.967,1.967,0,0,0,1.931,1.626h13.115a1.964,1.964,0,0,0,1.961-1.961V320.2A1.961,1.961,0,0,0,5428.195,318.241Z" transform="translate(-5408.859 -314.468)" fill="#fff"/>
</svg>
