<svg id="Component_28_1" data-name="Component 28 – 1" xmlns="http://www.w3.org/2000/svg" width="22.576" height="28.712" viewBox="0 0 22.576 28.712">
  <g id="Group_1635" data-name="Group 1635" transform="translate(-12724.578 -7999.251)">
    <path id="Path_1002" data-name="Path 1002" d="M12728.379,8004.338h.769c.5,0,.786.222.786.688a.7.7,0,0,1-.762.725h-.451v.83h-.342Zm.716,1.12c.312,0,.49-.154.49-.417,0-.281-.166-.407-.49-.407h-.374v.824Z" fill="#b3b3b3"/>
    <path id="Path_1003" data-name="Path 1003" d="M12730.641,8004.338h.349l.827,2.243h-.393l-.2-.571h-.852l-.194.571h-.374Zm-.164,1.379h.646l-.324-.944Z" fill="#b3b3b3"/>
    <path id="Path_1004" data-name="Path 1004" d="M12731.967,8006.424l.1-.321a1.3,1.3,0,0,0,.63.194c.3,0,.478-.145.478-.345s-.11-.281-.373-.34l-.247-.058a.632.632,0,0,1-.553-.621c0-.348.281-.62.77-.62a1.283,1.283,0,0,1,.7.191l-.11.3a1.056,1.056,0,0,0-.583-.179c-.253,0-.414.114-.414.287s.118.287.343.339l.234.049c.367.09.593.253.593.627a.731.731,0,0,1-.815.7A1.672,1.672,0,0,1,12731.967,8006.424Z" fill="#b3b3b3"/>
    <path id="Path_1005" data-name="Path 1005" d="M12733.782,8006.424l.1-.321a1.3,1.3,0,0,0,.629.194c.3,0,.479-.145.479-.345s-.111-.281-.373-.34l-.247-.058a.631.631,0,0,1-.552-.621c0-.348.28-.62.768-.62a1.293,1.293,0,0,1,.7.191l-.112.3a1.048,1.048,0,0,0-.583-.179c-.253,0-.413.114-.413.287s.117.287.342.339l.235.049c.367.09.592.253.592.627a.73.73,0,0,1-.813.7A1.668,1.668,0,0,1,12733.782,8006.424Z" fill="#b3b3b3"/>
    <path id="Path_1006" data-name="Path 1006" d="M12735.673,8004.338h.77c.5,0,.786.222.786.688a.7.7,0,0,1-.763.725h-.45v.83h-.343Zm.716,1.12c.313,0,.491-.154.491-.417,0-.281-.167-.407-.491-.407h-.373v.824Z" fill="#b3b3b3"/>
    <path id="Path_1007" data-name="Path 1007" d="M12737.509,8005.479v-.04a1,1,0,1,1,1.991,0v.043a1.005,1.005,0,1,1-1.991,0Zm1.633.022v-.1c0-.5-.28-.786-.645-.786-.346,0-.633.29-.633.78v.1c0,.521.263.821.642.821S12739.142,8006.007,12739.142,8005.5Z" fill="#b3b3b3"/>
    <path id="Path_1008" data-name="Path 1008" d="M12739.839,8004.338h.744c.521,0,.79.25.79.666a.663.663,0,0,1-.451.636l.608.941h-.407l-.525-.873h-.42v.873h-.339Zm.713,1.077c.3,0,.476-.152.476-.405,0-.237-.163-.376-.473-.376h-.377v.781Z" fill="#b3b3b3"/>
    <path id="Path_1009" data-name="Path 1009" d="M12742.666,8006.581h-.349v-1.929h-.683v-.311h1.719v.311h-.687Z" fill="#b3b3b3"/>
  </g>
  <g id="Group_1642" data-name="Group 1642" transform="translate(-12724.578 -7999.251)">
    <g id="Group_1636" data-name="Group 1636">
      <circle id="Ellipse_58" data-name="Ellipse 58" cx="5.356" cy="5.356" r="5.356" transform="translate(12730.51 8009.738)" fill="#05bbe6"/>
      <path id="Path_1010" data-name="Path 1010" d="M12735.866,8020.608a5.513,5.513,0,1,1,5.514-5.514A5.521,5.521,0,0,1,12735.866,8020.608Zm0-10.713a5.2,5.2,0,1,0,5.2,5.2A5.205,5.205,0,0,0,12735.866,8009.9Z" fill="#333"/>
    </g>
    <g id="Group_1637" data-name="Group 1637">
      <rect id="Rectangle_1210" data-name="Rectangle 1210" width="0.315" height="10.823" transform="translate(12735.709 8009.738)" fill="#333"/>
    </g>
    <g id="Group_1638" data-name="Group 1638">
      <path id="Path_1011" data-name="Path 1011" d="M12734.541,8020.416c-2.653-2.927-2.509-5.664-1.922-7.445a8.472,8.472,0,0,1,1.929-3.186l.219.226a8.3,8.3,0,0,0-1.852,3.07c-.812,2.471-.185,4.868,1.859,7.124Z" fill="#333"/>
    </g>
    <g id="Group_1639" data-name="Group 1639">
      <path id="Path_1012" data-name="Path 1012" d="M12737.192,8020.416l-.234-.211c2.048-2.26,2.672-4.661,1.856-7.136a8.3,8.3,0,0,0-1.849-3.058l.218-.226a8.454,8.454,0,0,1,1.93,3.186C12739.7,8014.752,12739.844,8017.489,12737.192,8020.416Z" fill="#333"/>
    </g>
    <g id="Group_1640" data-name="Group 1640">
      <path id="Path_1013" data-name="Path 1013" d="M12730.678,8014.265l-.1-.3a16.782,16.782,0,0,1,7.593-.772,11.358,11.358,0,0,1,3,.778l-.133.286a11.305,11.305,0,0,0-2.923-.754A16.486,16.486,0,0,0,12730.678,8014.265Z" fill="#333"/>
    </g>
    <g id="Group_1641" data-name="Group 1641">
      <path id="Path_1014" data-name="Path 1014" d="M12736.173,8017.293a18.405,18.405,0,0,1-5.465-.861l.093-.3a17.165,17.165,0,0,0,7.352.719,10.3,10.3,0,0,0,2.758-.71l.136.284a10.325,10.325,0,0,1-2.836.736A15.387,15.387,0,0,1,12736.173,8017.293Z" fill="#333"/>
    </g>
  </g>
  <g id="Group_1645" data-name="Group 1645" transform="translate(-12724.578 -7999.251)">
    <g id="Group_1643" data-name="Group 1643">
      <path id="Path_1015" data-name="Path 1015" d="M12738.064,8025.7h-4.4a.158.158,0,0,1-.157-.158v-2.156a.158.158,0,0,1,.157-.158h2.676v.315h-2.518v1.842h4.081v-.291h.314v.448A.158.158,0,0,1,12738.064,8025.7Z" fill="#b3b3b3"/>
    </g>
    <g id="Group_1644" data-name="Group 1644">
      <path id="Path_1016" data-name="Path 1016" d="M12735.866,8025.239a.77.77,0,1,1,.77-.77A.772.772,0,0,1,12735.866,8025.239Zm0-1.225a.455.455,0,1,0,.455.455A.455.455,0,0,0,12735.866,8024.014Z" fill="#b3b3b3"/>
    </g>
  </g>
  <path id="Path_1017" data-name="Path 1017" d="M12724.578,7999.767v27.679a.517.517,0,0,0,.517.517h21.543a.517.517,0,0,0,.517-.517v-27.679a.516.516,0,0,0-.517-.516h-21.543A.516.516,0,0,0,12724.578,7999.767Zm21.558,27.638h-20.54a.516.516,0,0,1-.516-.517v-26.563a.516.516,0,0,1,.516-.516h20.54a.516.516,0,0,1,.517.516v26.563A.516.516,0,0,1,12746.136,8027.4Z" transform="translate(-12724.578 -7999.251)" fill="#b3b3b3"/>
</svg>
