<svg id="Component_29_1" data-name="Component 29 – 1" xmlns="http://www.w3.org/2000/svg" width="21.764" height="30.471" viewBox="0 0 21.764 30.471">
  <rect id="Rectangle_1211" data-name="Rectangle 1211" width="21.764" height="30.471" fill="#b3b3b3"/>
  <path id="Path_1018" data-name="Path 1018" d="M12738.922,8073.6l3.091-9.56-.854-.829-3.66,3.172-1.633.781s-2-.415-2.027-.489-2.074-2.342-2.074-2.342l-1.9-.659-1,2.636,4.212,7.29h5.849Z" transform="translate(-12724.984 -8043.128)" fill="#e8e8e8"/>
  <path id="Path_1019" data-name="Path 1019" d="M12735.866,8062.646l-4.586-2.974v2.553l4.258,3.814h.657l4.258-3.814v-2.553Z" transform="translate(-12724.984 -8043.128)" fill="#d6d6d6"/>
  <g id="Group_1647" data-name="Group 1647" transform="translate(-12724.984 -8043.128)">
    <path id="Path_1020" data-name="Path 1020" d="M12742.519,8054.2c-.511-.294-1.1.644-1.1.644s-.762,1.7-.922,2.079a1.06,1.06,0,0,0,.378,1.123c.3.223,1.16-.3,1.724-1.266S12743.03,8054.5,12742.519,8054.2Z" fill="#d6d6d6"/>
    <path id="Path_1021" data-name="Path 1021" d="M12730.306,8054.845s-.586-.938-1.1-.644-.648,1.611-.084,2.58,1.428,1.489,1.725,1.266a1.06,1.06,0,0,0,.378-1.123C12731.068,8056.55,12730.306,8054.845,12730.306,8054.845Z" fill="#d6d6d6"/>
  </g>
  <path id="Path_1022" data-name="Path 1022" d="M12742.21,8052.524c0,4.987-2.84,10.936-6.344,10.936s-6.343-5.949-6.343-10.936,2.84-6.449,6.343-6.449S12742.21,8047.538,12742.21,8052.524Z" transform="translate(-12724.984 -8043.128)" fill="#ececec"/>
  <path id="Path_1023" data-name="Path 1023" d="M12735.866,8046.075c-3.5,0-6.343,1.463-6.343,6.449a14.879,14.879,0,0,0,.18,2.259,9.671,9.671,0,0,0,1.571-4.619s.936,1.066,4.592,1.066,4.593-1.066,4.593-1.066a9.66,9.66,0,0,0,1.571,4.619,14.879,14.879,0,0,0,.18-2.259C12742.21,8047.538,12739.37,8046.075,12735.866,8046.075Z" transform="translate(-12724.984 -8043.128)" fill="#c1c1c1"/>
  <path id="Path_1024" data-name="Path 1024" d="M12729.6,8053.983l-.009-.089Z" transform="translate(-12724.984 -8043.128)" fill="#563317"/>
  <path id="Path_1025" data-name="Path 1025" d="M12729.613,8054.1l-.01-.089Z" transform="translate(-12724.984 -8043.128)" fill="#563317"/>
  <path id="Path_1026" data-name="Path 1026" d="M12729.64,8054.328c-.009-.068-.017-.136-.024-.2C12729.623,8054.192,12729.631,8054.26,12729.64,8054.328Z" transform="translate(-12724.984 -8043.128)" fill="#563317"/>
  <path id="Path_1027" data-name="Path 1027" d="M12729.7,8054.783h0c-.011-.071-.021-.142-.031-.213C12729.682,8054.641,12729.692,8054.712,12729.7,8054.783Z" transform="translate(-12724.984 -8043.128)" fill="#563317"/>
  <path id="Path_1028" data-name="Path 1028" d="M12729.667,8054.539l-.011-.087Z" transform="translate(-12724.984 -8043.128)" fill="#563317"/>
  <path id="Path_1029" data-name="Path 1029" d="M12729.651,8054.418l-.012-.09Z" transform="translate(-12724.984 -8043.128)" fill="#563317"/>
  <path id="Path_1030" data-name="Path 1030" d="M12730.132,8049.146c.012-.029.025-.058.038-.086C12730.157,8049.088,12730.144,8049.117,12730.132,8049.146Z" transform="translate(-12724.984 -8043.128)" fill="#563317"/>
  <path id="Path_1031" data-name="Path 1031" d="M12729.656,8054.452l0-.034Z" transform="translate(-12724.984 -8043.128)" fill="#e29f81"/>
  <path id="Path_1032" data-name="Path 1032" d="M12729.672,8054.57l0-.031Z" transform="translate(-12724.984 -8043.128)" fill="#e29f81"/>
  <path id="Path_1033" data-name="Path 1033" d="M12729.64,8054.328Z" transform="translate(-12724.984 -8043.128)" fill="#e29f81"/>
  <path id="Path_1034" data-name="Path 1034" d="M12729.6,8054.016l0-.033Z" transform="translate(-12724.984 -8043.128)" fill="#e29f81"/>
  <path id="Path_1035" data-name="Path 1035" d="M12730.132,8049.146Z" transform="translate(-12724.984 -8043.128)" fill="#e29f81"/>
  <path id="Path_1036" data-name="Path 1036" d="M12729.591,8053.894l0-.023Z" transform="translate(-12724.984 -8043.128)" fill="#e29f81"/>
  <path id="Path_1037" data-name="Path 1037" d="M12730.17,8049.06Z" transform="translate(-12724.984 -8043.128)" fill="#e29f81"/>
  <path id="Path_1038" data-name="Path 1038" d="M12729.615,8054.124l0-.019Z" transform="translate(-12724.984 -8043.128)" fill="#e29f81"/>
  <path id="Path_1039" data-name="Path 1039" d="M12734.212,8073.6h-9.228v-8.743l6.3-2.631C12729.713,8065.881,12733.4,8072.262,12734.212,8073.6Z" transform="translate(-12724.984 -8043.128)" fill="#c1c1c1"/>
  <path id="Path_1040" data-name="Path 1040" d="M12730.913,8064.829l2.657,4.065,1.968-2.855-4.258-3.814A5.674,5.674,0,0,0,12730.913,8064.829Z" transform="translate(-12724.984 -8043.128)" fill="#fff"/>
  <path id="Path_1041" data-name="Path 1041" d="M12746.748,8064.855v8.743h-9.227c.813-1.336,4.5-7.717,2.931-11.374Z" transform="translate(-12724.984 -8043.128)" fill="#c1c1c1"/>
  <path id="Path_1042" data-name="Path 1042" d="M12740.819,8064.829l-2.657,4.065-1.968-2.855,4.258-3.814A5.674,5.674,0,0,1,12740.819,8064.829Z" transform="translate(-12724.984 -8043.128)" fill="#fff"/>
  <path id="Path_1043" data-name="Path 1043" d="M12736.2,8066.039h-.657l-1.593,2.311,1.04,1.862h1.762l1.04-1.862Z" transform="translate(-12724.984 -8043.128)" fill="#c1c1c1"/>
  <path id="Path_1044" data-name="Path 1044" d="M12737.047,8073.6h-2.365l.3-3.387h1.762Z" transform="translate(-12724.984 -8043.128)" fill="#c1c1c1"/>
  <path id="Path_1045" data-name="Path 1045" d="M12736.747,8070.211h-1.762l-.02.223h1.8Z" transform="translate(-12724.984 -8043.128)" fill="#a5a5a5"/>
</svg>
